<?xml version="1.0" standalone="no"?>
<!DOCTYPE svg PUBLIC "-//W3C//DTD SVG 20010904//EN"
 "http://www.w3.org/TR/2001/REC-SVG-20010904/DTD/svg10.dtd">
<svg version="1.0" xmlns="http://www.w3.org/2000/svg"
 width="1920.000000pt" height="1080.000000pt" viewBox="0 0 1920.000000 1080.000000"
 preserveAspectRatio="xMidYMid meet">

<g transform="translate(0.000000,1080.000000) scale(0.100000,-0.100000)"
fill="#000000" stroke="none">
<path d="M11245 9589 c-37 -72 -98 -134 -164 -166 -56 -28 -57 -28 -271 -29
-235 -1 -318 -12 -407 -58 l-50 -25 -139 24 c-96 17 -178 25 -266 26 -170 0
-232 -10 -368 -63 -190 -75 -480 -80 -587 -10 -13 8 -30 12 -38 8 -29 -11 -16
-52 33 -104 39 -42 74 -64 202 -125 177 -85 249 -110 373 -132 140 -24 367
-45 484 -45 230 0 448 -30 550 -76 148 -65 201 -134 446 -581 116 -212 343
-534 537 -761 46 -54 205 -193 340 -297 179 -137 422 -256 689 -336 l74 -22
-79 -28 c-99 -36 -325 -105 -554 -170 -285 -81 -344 -105 -362 -144 -18 -39 6
-80 67 -115 45 -26 70 -32 167 -41 122 -11 215 -30 402 -78 139 -36 158 -37
319 -11 133 21 217 41 274 65 21 9 108 34 193 55 187 48 284 78 370 117 56 25
72 28 110 21 222 -39 673 -60 835 -39 77 10 239 48 290 67 13 6 -101 -174
-157 -246 -33 -42 -250 -281 -303 -333 -77 -76 -240 -214 -345 -293 -100 -76
-141 -128 -142 -185 -1 -17 5 -35 13 -41 19 -12 147 -2 288 23 186 33 332 101
461 214 102 90 158 123 235 140 150 34 126 21 360 206 28 22 93 69 145 106 52
36 105 75 117 86 48 43 137 202 179 318 24 65 71 168 105 229 l62 110 86 47
c137 75 211 122 291 186 113 91 363 341 538 537 266 298 449 494 494 530 71
56 358 319 442 405 84 85 116 142 157 277 18 58 21 87 17 176 -4 91 -9 116
-33 166 -25 52 -33 61 -81 82 -30 13 -79 28 -110 32 -74 12 -224 -3 -349 -35
-55 -14 -176 -40 -270 -58 -93 -19 -235 -48 -315 -65 -80 -17 -215 -44 -300
-61 -215 -41 -285 -60 -435 -114 -71 -26 -157 -55 -190 -65 -33 -10 -98 -32
-145 -49 -47 -16 -166 -55 -265 -86 -99 -31 -229 -76 -290 -100 -149 -60 -527
-164 -745 -205 -224 -43 -330 -49 -810 -51 -615 -3 -604 -5 -858 188 -68 52
-148 117 -178 146 -51 48 -117 85 -155 86 -9 1 -24 -14 -32 -31 -13 -29 -13
-41 -1 -98 14 -66 19 -150 9 -150 -3 0 -68 7 -143 16 -202 23 -481 93 -596
150 -90 46 -240 149 -234 162 2 4 16 33 32 65 17 35 31 83 36 124 8 72 18 103
71 223 38 87 42 154 16 235 -20 60 -71 125 -98 125 -12 0 -27 -16 -44 -51z
m71 13 c30 -23 51 -68 59 -125 6 -42 5 -47 -11 -47 -11 0 -28 -7 -38 -15 -24
-18 -56 -20 -56 -3 0 7 -16 -9 -35 -37 -20 -27 -45 -55 -56 -60 -11 -6 -16
-15 -12 -20 4 -4 2 -5 -5 -1 -6 4 -45 -4 -86 -18 -84 -29 -109 -32 -128 -13
-7 8 -23 19 -36 26 -23 12 -30 45 -12 56 6 4 8 10 5 14 -2 5 24 11 58 13 119
10 241 93 289 197 25 56 32 59 64 33z m-516 -233 c8 -2 -23 -5 -70 -9 -47 -4
-119 -17 -160 -30 -41 -12 -83 -22 -93 -22 -10 0 -21 -7 -24 -16 -10 -26 -23
-31 -62 -25 -50 8 -59 20 -21 28 18 4 47 16 65 26 50 30 91 40 190 49 79 7
121 6 175 -1z m-920 -55 c-41 -14 -81 -31 -87 -36 -16 -13 -17 -28 -3 -28 20
0 63 -48 57 -63 -12 -32 -284 -39 -461 -13 -110 17 -149 16 -80 -3 129 -33
288 -43 465 -27 l87 8 12 -52 c7 -28 9 -54 5 -58 -4 -4 -113 -7 -243 -7 -280
0 -239 -12 73 -21 121 -3 223 -9 226 -13 11 -10 -9 -51 -24 -51 -8 0 -20 -7
-27 -15 -8 -9 -29 -15 -56 -15 -71 0 -274 29 -353 51 -96 26 -221 78 -221 92
0 6 -3 8 -6 5 -3 -3 -49 15 -102 42 -68 33 -110 61 -139 93 -38 41 -53 67 -38
67 2 0 38 -11 79 -25 41 -14 86 -25 99 -25 14 0 27 -5 29 -10 2 -6 21 -13 43
-15 30 -4 35 -3 20 4 -22 10 -21 11 45 17 121 11 210 28 270 51 144 55 215 71
325 72 l80 0 -75 -25z m173 19 c-7 -2 -19 -2 -25 0 -7 3 -2 5 12 5 14 0 19 -2
13 -5z m7430 -70 c-13 -2 -35 -2 -50 0 -16 2 -5 4 22 4 28 0 40 -2 28 -4z
m118 -24 c38 -17 40 -20 14 -16 -16 3 -48 12 -70 21 -35 13 -37 15 -14 16 15
0 46 -9 70 -21z m-304 5 c-3 -3 -12 -4 -19 -1 -8 3 -5 6 6 6 11 1 17 -2 13 -5z
m-110 -20 c-3 -3 -12 -4 -19 -1 -8 3 -5 6 6 6 11 1 17 -2 13 -5z m517 -76 c38
-105 47 -204 25 -281 -9 -34 -58 -149 -91 -215 -16 -31 -427 -429 -503 -487
-33 -25 -73 -60 -88 -78 -27 -30 -26 -27 9 38 20 39 44 80 52 93 8 12 13 24
11 26 -2 3 -35 -48 -74 -112 -47 -79 -102 -153 -170 -227 -55 -61 -136 -153
-180 -205 -166 -198 -403 -442 -545 -563 -227 -192 -513 -337 -865 -438 -77
-22 -183 -54 -235 -71 -52 -16 -110 -31 -128 -34 -18 -2 -42 -9 -52 -14 -37
-20 -329 -99 -406 -110 -120 -17 -621 -8 -754 14 -58 9 -111 19 -119 22 -9 3
10 19 49 42 34 20 93 65 130 100 57 52 74 62 106 63 24 1 30 3 17 6 -13 2 -23
7 -23 9 0 3 30 40 67 82 36 42 86 107 110 144 41 63 47 68 81 69 32 1 34 2 12
8 -14 4 -25 14 -24 23 2 22 194 308 218 323 12 7 66 20 121 30 278 48 471 150
700 371 l110 106 -120 -107 c-246 -218 -435 -314 -698 -356 -43 -6 -80 -9 -83
-7 -3 3 15 19 40 35 l45 30 -77 11 c-102 16 -143 15 -217 -3 -38 -10 -226 -98
-481 -227 -230 -115 -440 -218 -466 -229 -26 -10 -84 -36 -130 -57 -46 -22
-144 -62 -218 -90 -158 -59 -156 -59 -355 10 -138 47 -275 109 -390 175 -72
42 -325 227 -325 239 0 2 25 -12 55 -32 29 -20 98 -53 152 -74 54 -21 159 -64
234 -95 129 -53 146 -57 300 -76 161 -19 449 -31 449 -17 0 4 -69 8 -152 11
-207 5 -410 31 -508 63 -44 15 -79 28 -78 29 2 2 50 -2 108 -7 115 -11 251 -1
446 32 61 11 133 18 160 16 26 -1 71 2 98 6 28 5 110 13 181 18 l130 8 -135
-4 c-74 -2 -164 -6 -200 -10 l-65 -5 140 49 c77 27 199 72 270 99 149 58 273
99 360 119 l60 14 -55 -6 c-60 -6 -252 -65 -400 -124 -174 -69 -366 -130 -466
-149 -208 -40 -354 -54 -480 -48 -167 9 -220 21 -364 86 -38 17 44 4 160 -26
140 -36 273 -40 450 -14 80 12 163 24 185 27 81 11 346 85 370 104 6 4 37 17
70 29 92 34 540 228 628 272 116 59 403 177 556 231 80 28 251 68 354 82 64
10 180 50 235 82 100 59 163 138 225 282 38 88 78 143 166 229 53 52 101 86
161 117 173 89 465 181 750 235 159 30 413 86 629 138 57 13 162 46 235 72 72
26 172 60 221 75 50 15 101 31 115 36 14 5 53 9 87 9 l61 1 16 -42z m-327 18
c-29 -29 -272 -118 -417 -152 -298 -70 -458 -105 -585 -129 -259 -49 -497
-116 -693 -197 -119 -49 -159 -72 -230 -134 -117 -102 -167 -170 -241 -333
-22 -48 -26 -51 -33 -31 -4 12 -6 26 -2 31 3 5 7 19 9 30 3 12 11 29 18 38 8
9 28 45 45 81 32 69 105 160 175 215 87 69 273 172 327 181 19 3 50 12 68 20
18 8 45 14 61 14 15 0 31 3 35 7 3 4 12 8 19 9 63 13 272 67 307 80 98 36 114
43 98 44 -36 0 -7 35 32 37 13 1 34 6 45 11 11 6 40 15 64 22 38 10 47 10 56
-3 21 -29 299 -8 403 31 29 10 55 22 59 26 3 3 17 6 29 6 13 0 25 4 28 9 18
28 228 99 299 100 33 1 36 -1 24 -13z m-322 -25 c-13 -11 -106 -33 -113 -27
-5 6 4 10 58 25 46 12 66 13 55 2z m-482 -48 c-7 -2 -19 -2 -25 0 -7 3 -2 5
12 5 14 0 19 -2 13 -5z m-213 -54 c-30 -11 -104 -31 -165 -45 -60 -14 -150
-34 -200 -46 -49 -11 -128 -35 -175 -53 -47 -18 -105 -38 -130 -45 -25 -6
-101 -29 -170 -50 -134 -42 -216 -62 -205 -52 3 4 39 16 78 28 287 85 354 107
452 144 170 65 218 78 343 100 65 12 133 25 152 29 64 16 76 10 20 -10z m-271
-118 c8 -5 11 -16 8 -24 -6 -17 -69 -33 -86 -22 -17 10 5 43 31 48 13 2 25 5
28 5 3 1 11 -2 19 -7z m-3721 -204 c58 -56 113 -99 262 -206 19 -14 37 -28 40
-31 3 -3 19 -16 35 -29 l30 -24 -40 7 c-38 7 -145 70 -145 86 0 8 -54 63 -110
110 -70 59 -159 150 -148 150 5 0 40 -28 76 -63z m2642 -506 c0 -11 -26 -22
-34 -14 -12 12 -5 23 14 23 11 0 20 -4 20 -9z m-515 -116 c-44 -19 -81 -29
-72 -19 10 10 67 31 87 32 8 0 2 -5 -15 -13z m-1308 -131 c-3 -3 -12 -4 -19
-1 -8 3 -5 6 6 6 11 1 17 -2 13 -5z m6 -21 c-7 -2 -21 -2 -30 0 -10 3 -4 5 12
5 17 0 24 -2 18 -5z m-622 -29 c49 -9 89 -20 89 -25 0 -14 -34 -11 -117 12
-123 34 -113 38 28 13z"/>
<path d="M11280 9499 c0 -5 5 -7 10 -4 6 3 10 8 10 11 0 2 -4 4 -10 4 -5 0
-10 -5 -10 -11z"/>
<path d="M9330 9048 c0 -4 14 -8 30 -8 17 0 30 2 30 4 0 2 -13 6 -30 8 -16 3
-30 1 -30 -4z"/>
<path d="M17595 9015 c-24 -12 -25 -14 -5 -8 14 3 41 10 60 14 34 7 34 7 5 7
-16 1 -43 -5 -60 -13z"/>
<path d="M17605 8872 c-48 -122 -72 -171 -98 -199 -11 -13 -16 -23 -9 -23 21
0 51 53 102 181 28 72 49 133 47 135 -2 2 -21 -40 -42 -94z"/>
<path d="M17008 8843 c7 -3 16 -2 19 1 4 3 -2 6 -13 5 -11 0 -14 -3 -6 -6z"/>
<path d="M16873 8823 c9 -2 23 -2 30 0 6 3 -1 5 -18 5 -16 0 -22 -2 -12 -5z"/>
<path d="M16818 8813 c6 -2 18 -2 25 0 6 3 1 5 -13 5 -14 0 -19 -2 -12 -5z"/>
<path d="M16735 8800 c-25 -11 1 -11 35 0 20 6 21 8 5 8 -11 0 -29 -3 -40 -8z"/>
<path d="M16901 8662 c-75 -76 -160 -167 -189 -203 -30 -35 -10 -17 44 41 54
58 142 149 197 203 54 53 95 97 91 97 -4 0 -69 -62 -143 -138z"/>
<path d="M16560 8749 c-47 -16 -71 -27 -55 -23 30 5 29 5 -20 -47 -29 -31 -38
-43 -20 -30 17 13 42 37 57 55 20 24 43 38 88 50 33 9 60 19 60 22 0 8 -25 2
-110 -27z"/>
<path d="M16415 8710 c-25 -11 1 -11 35 0 20 6 21 8 5 8 -11 0 -29 -3 -40 -8z"/>
<path d="M16368 8693 c7 -3 16 -2 19 1 4 3 -2 6 -13 5 -11 0 -14 -3 -6 -6z"/>
<path d="M16295 8675 c-39 -17 -21 -18 25 0 19 7 28 14 20 14 -8 0 -28 -6 -45
-14z"/>
<path d="M17193 8603 c-32 -38 -79 -90 -105 -118 -116 -125 -300 -370 -368
-490 -153 -273 -421 -596 -635 -765 -197 -156 -560 -361 -903 -510 -67 -29
-121 -55 -119 -57 14 -13 460 200 664 318 260 150 471 314 621 483 125 141
298 379 372 511 42 76 180 274 239 344 49 58 150 175 244 284 32 37 56 67 54
67 -3 0 -32 -30 -64 -67z"/>
<path d="M16190 8640 c-18 -12 -2 -12 25 0 13 6 15 9 5 9 -8 0 -22 -4 -30 -9z"/>
<path d="M16140 8620 c-8 -5 -10 -10 -5 -10 6 0 17 5 25 10 8 5 11 10 5 10 -5
0 -17 -5 -25 -10z"/>
<path d="M16060 8590 c-46 -25 -34 -25 21 0 24 11 37 19 29 19 -8 0 -31 -8
-50 -19z"/>
<path d="M16409 8593 c-13 -16 -12 -17 4 -4 9 7 17 15 17 17 0 8 -8 3 -21 -13z"/>
<path d="M15960 8545 c-25 -13 -40 -24 -35 -24 6 0 30 11 55 24 25 13 41 24
35 24 -5 0 -30 -11 -55 -24z"/>
<path d="M17379 8517 c-25 -23 -75 -68 -110 -100 -48 -44 -51 -48 -14 -19 57
45 183 161 175 161 -3 0 -26 -18 -51 -42z"/>
<path d="M15873 8499 c-35 -22 -46 -37 -15 -20 22 13 58 40 52 41 -3 0 -20
-10 -37 -21z"/>
<path d="M15714 8388 c-27 -23 -116 -110 -199 -194 -166 -169 -254 -238 -395
-313 -109 -58 -114 -69 -7 -15 129 65 227 142 387 303 85 86 182 180 214 209
33 28 57 52 54 52 -3 0 -27 -19 -54 -42z"/>
<path d="M16624 8358 c-44 -51 -57 -68 -52 -68 3 0 22 20 42 45 38 46 45 63
10 23z"/>
<path d="M17174 8328 l-19 -23 23 19 c21 18 27 26 19 26 -2 0 -12 -10 -23 -22z"/>
<path d="M16379 8052 c-86 -103 -210 -257 -277 -342 -137 -177 -335 -377 -459
-464 -46 -31 -83 -60 -83 -63 0 -5 117 76 165 115 149 121 232 213 504 557 31
39 113 139 184 224 70 84 127 155 125 156 -2 2 -74 -80 -159 -183z"/>
<path d="M14980 7815 c-14 -8 -20 -14 -15 -14 6 0 21 6 35 14 14 8 21 14 15
14 -5 0 -21 -6 -35 -14z"/>
<path d="M14860 7770 c-13 -9 -13 -10 0 -10 8 0 22 5 30 10 13 9 13 10 0 10
-8 0 -22 -5 -30 -10z"/>
<path d="M14755 7740 c-13 -5 -14 -9 -5 -9 8 0 24 4 35 9 13 5 14 9 5 9 -8 0
-24 -4 -35 -9z"/>
<path d="M15639 7733 c-13 -16 -12 -17 4 -4 9 7 17 15 17 17 0 8 -8 3 -21 -13z"/>
<path d="M14688 7723 c6 -2 18 -2 25 0 6 3 1 5 -13 5 -14 0 -19 -2 -12 -5z"/>
<path d="M14638 7713 c6 -2 18 -2 25 0 6 3 1 5 -13 5 -14 0 -19 -2 -12 -5z"/>
<path d="M14370 7630 c-8 -5 -10 -10 -5 -10 6 0 17 5 25 10 8 5 11 10 5 10 -5
0 -17 -5 -25 -10z"/>
<path d="M15449 7563 c-13 -16 -12 -17 4 -4 16 13 21 21 13 21 -2 0 -10 -8
-17 -17z"/>
<path d="M15372 7503 c-24 -24 -24 -25 -2 -8 42 33 44 35 37 35 -4 0 -19 -12
-35 -27z"/>
<path d="M13813 7453 c9 -2 25 -2 35 0 9 3 1 5 -18 5 -19 0 -27 -2 -17 -5z"/>
<path d="M15230 7399 c-22 -18 -22 -19 -3 -10 12 6 25 16 28 21 9 15 3 12 -25
-11z"/>
<path d="M15179 7363 c-13 -16 -12 -17 4 -4 9 7 17 15 17 17 0 8 -8 3 -21 -13z"/>
<path d="M15129 7329 l-24 -20 28 17 c15 9 27 18 27 20 0 8 -8 4 -31 -17z"/>
<path d="M14960 7235 c-36 -19 -61 -34 -57 -35 10 0 127 59 127 65 0 7 2 8
-70 -30z"/>
<path d="M14870 7190 c-9 -6 -10 -10 -3 -10 6 0 15 5 18 10 8 12 4 12 -15 0z"/>
<path d="M13378 7183 c7 -3 16 -2 19 1 4 3 -2 6 -13 5 -11 0 -14 -3 -6 -6z"/>
<path d="M14750 7140 c-8 -5 -10 -10 -5 -10 6 0 17 5 25 10 8 5 11 10 5 10 -5
0 -17 -5 -25 -10z"/>
<path d="M14640 7100 c-8 -5 -10 -10 -5 -10 6 0 17 5 25 10 8 5 11 10 5 10 -5
0 -17 -5 -25 -10z"/>
<path d="M14598 7083 c7 -3 16 -2 19 1 4 3 -2 6 -13 5 -11 0 -14 -3 -6 -6z"/>
<path d="M14495 7063 c-11 -3 -24 -10 -30 -15 -12 -13 35 0 50 13 5 5 7 8 5 8
-3 -1 -14 -3 -25 -6z"/>
<path d="M14420 7040 c0 -5 7 -7 15 -4 8 4 15 8 15 10 0 2 -7 4 -15 4 -8 0
-15 -4 -15 -10z"/>
<path d="M14378 7033 c6 -2 18 -2 25 0 6 3 1 5 -13 5 -14 0 -19 -2 -12 -5z"/>
<path d="M14328 7023 c6 -2 18 -2 25 0 6 3 1 5 -13 5 -14 0 -19 -2 -12 -5z"/>
<path d="M14188 7013 c12 -2 32 -2 45 0 12 2 2 4 -23 4 -25 0 -35 -2 -22 -4z"/>
<path d="M13023 7003 c9 -2 25 -2 35 0 9 3 1 5 -18 5 -19 0 -27 -2 -17 -5z"/>
<path d="M14770 6830 c-18 -12 -2 -12 25 0 13 6 15 9 5 9 -8 0 -22 -4 -30 -9z"/>
<path d="M14688 6803 c7 -3 16 -2 19 1 4 3 -2 6 -13 5 -11 0 -14 -3 -6 -6z"/>
<path d="M14590 6784 l-55 -13 49 5 c27 3 58 9 70 14 31 13 -1 10 -64 -6z"/>
<path d="M14450 6760 c-34 -7 -34 -7 -5 -8 17 0 44 4 60 8 27 7 27 8 5 8 -14
-1 -41 -4 -60 -8z"/>
<path d="M14298 6743 c-27 -2 -48 -8 -48 -12 0 -7 106 3 150 13 18 5 -38 4
-102 -1z"/>
<path d="M14160 6722 c0 -4 18 -6 40 -4 22 2 40 6 40 8 0 2 -18 4 -40 4 -22 0
-40 -3 -40 -8z"/>
<path d="M13933 6713 c9 -2 23 -2 30 0 6 3 -1 5 -18 5 -16 0 -22 -2 -12 -5z"/>
<path d="M14088 6713 c12 -2 32 -2 45 0 12 2 2 4 -23 4 -25 0 -35 -2 -22 -4z"/>
<path d="M15020 6650 c-8 -5 -10 -10 -5 -10 6 0 17 5 25 10 8 5 11 10 5 10 -5
0 -17 -5 -25 -10z"/>
<path d="M16428 8953 c6 -2 18 -2 25 0 6 3 1 5 -13 5 -14 0 -19 -2 -12 -5z"/>
<path d="M16388 8943 c7 -3 16 -2 19 1 4 3 -2 6 -13 5 -11 0 -14 -3 -6 -6z"/>
<path d="M25 9358 c3 -7 232 -758 509 -1668 l504 -1655 386 -3 385 -2 11 42
c46 171 653 2400 661 2426 6 18 13 31 15 29 5 -5 112 -379 459 -1615 l249
-882 385 2 385 3 393 1325 c216 729 436 1471 488 1650 53 179 98 333 101 343
5 16 -15 17 -367 15 l-372 -3 -309 -1205 c-169 -663 -311 -1212 -314 -1220 -5
-13 -6 -13 -13 0 -5 8 -83 276 -174 595 -191 666 -478 1668 -508 1768 l-20 67
-392 -2 -391 -3 -298 -1085 c-380 -1389 -369 -1350 -377 -1350 -3 0 -125 449
-270 998 -146 548 -291 1097 -324 1220 l-60 222 -373 0 c-295 0 -372 -3 -369
-12z"/>
<path d="M5640 7700 l0 -1670 1305 0 1305 0 0 300 0 300 -970 0 -970 0 2 398
3 397 868 3 867 2 0 300 0 300 -870 0 -870 0 0 370 0 370 965 0 965 0 0 300 0
300 -1300 0 -1300 0 0 -1670z"/>
<path d="M711 5349 c-157 -31 -303 -164 -352 -320 -18 -57 -19 -100 -19 -675
0 -597 1 -615 21 -678 28 -86 107 -188 187 -243 121 -82 62 -77 1005 -81 l837
-3 0 -364 0 -365 -1015 0 -1015 0 0 -300 0 -300 1198 2 1197 3 56 23 c125 50
231 156 281 280 23 57 23 58 26 630 2 496 1 582 -13 635 -38 148 -158 273
-315 329 l-65 23 -830 5 -830 5 -3 403 -2 402 1020 0 1020 0 0 300 0 300
-1172 -1 c-645 -1 -1193 -5 -1217 -10z"/>
<path d="M4070 3690 l0 -1670 340 0 340 0 0 695 0 695 740 0 740 0 0 -695 0
-695 340 0 340 0 0 1670 0 1670 -340 0 -340 0 0 -675 0 -675 -740 0 -740 0 0
413 c0 226 -3 530 -7 675 l-6 262 -334 0 -333 0 0 -1670z"/>
<path d="M8334 3698 l-670 -1663 155 -6 c86 -4 249 -7 362 -8 l205 -1 131 357
130 358 717 3 716 2 8 -22 c152 -425 248 -685 257 -690 5 -4 167 -8 359 -8
275 0 347 3 343 13 -4 10 -477 1236 -1011 2622 -81 209 -175 453 -209 542
l-62 163 -380 0 -381 0 -670 -1662z m1069 862 c8 -25 110 -303 226 -619 116
-316 211 -581 211 -589 0 -13 -55 -14 -471 -9 -259 3 -473 7 -474 9 -2 2 105
288 238 635 133 348 245 629 248 625 4 -4 13 -27 22 -52z"/>
<path d="M12000 3690 l0 -1670 335 0 335 0 0 660 0 660 439 0 439 0 12 -32 c6
-18 29 -82 50 -143 226 -646 313 -883 336 -922 57 -98 123 -152 240 -195 53
-19 83 -22 312 -26 l252 -4 0 301 0 300 -152 3 -153 3 -122 360 c-67 198 -122
365 -122 370 -1 6 29 16 67 22 146 23 235 75 300 173 83 124 82 112 82 794 0
656 -1 663 -58 770 -33 63 -123 153 -189 189 -108 58 -77 57 -1290 57 l-1113
0 0 -1670z m1990 660 l0 -420 -660 0 -660 0 0 420 0 420 660 0 660 0 0 -420z"/>
<path d="M15660 3690 l0 -1670 1305 0 1305 0 0 295 0 295 -863 0 c-475 0 -912
3 -970 7 l-107 6 0 394 0 393 865 0 865 0 0 300 0 300 -865 0 -865 0 0 375 0
375 965 0 965 0 0 300 0 300 -1300 0 -1300 0 0 -1670z"/>
</g>
</svg>
